<svg width="122" height="30" viewBox="0 0 122 30" fill="none" xmlns="http://www.w3.org/2000/svg">
<path d="M9.53462 15.8192C13.4161 15.8633 18.2356 11.271 19.9068 12.5405C21.2761 13.5893 20.0793 15.201 19.4001 16.338C17.8691 18.7887 10.9578 27.6091 10.9578 27.6091H6.18144C6.18144 27.6091 15.0981 17.4309 14.5051 16.7354C13.9983 16.04 11.6479 19.2303 7.72326 19.0537C3.45362 18.8329 -0.125982 14.9471 0.00340121 9.57099C0.132784 4.10659 4.86605 0 10.7961 0C16.2194 0 20.6939 3.53255 21.5026 8.0807H17.6642C16.8987 5.42025 14.1277 3.36696 10.7961 3.36696C6.95774 3.36696 3.92802 5.90598 3.79864 9.57099C3.71238 13.0263 5.80408 15.7309 9.55619 15.8192H9.53462Z" fill="#0D60D6"/>
<path fill-rule="evenodd" clip-rule="evenodd" d="M33.8156 2.64941C40.2739 2.64941 45.514 8.11382 45.514 14.8477C45.514 21.5817 40.2739 27.0461 33.8156 27.0461C27.3572 27.0461 22.1172 21.5817 22.1172 14.8477C22.1172 8.11382 27.3572 2.64941 33.8156 2.64941ZM26.7211 11.536L26.7103 12.4743C26.9367 12.6068 33.6215 14.8257 33.8156 14.8367C34.1714 14.8477 40.1446 12.7944 40.9209 12.4964L40.9316 11.5249L37.3952 10.3217C32.9746 8.8976 34.7859 8.78721 30.2468 10.3327L26.7211 11.536ZM28.3384 17.9056L31.1956 18.8991C31.8425 19.1199 32.856 19.3407 33.2118 19.7712C33.4059 20.003 33.3843 20.2128 33.5137 20.4667H34.1175C34.2145 20.1907 34.2469 19.981 34.3762 19.7823C34.4733 19.6388 34.7213 19.4732 34.9477 19.3959L39.282 17.9387V14.0088C38.7537 14.1412 38.1391 14.362 37.6324 14.5386C37.0825 14.7263 36.5434 14.9029 35.9935 15.0906C34.6889 15.5211 33.8695 15.775 33.8695 17.3757C33.4921 17.2764 34.0528 16.6913 33.1794 15.8302C32.7697 15.4328 32.2522 15.3224 31.6592 15.1127C31.2171 14.9581 28.5971 14.0419 28.3384 14.0198L28.3276 17.9056H28.3384Z" fill="#0D60D6"/>
<path d="M50.9462 29.0107V10.7408H48.8438V29.0107H50.9462ZM61.0489 16.9228C61.0489 15.576 60.7793 14.4279 60.2402 13.4675C59.7011 12.5071 58.9788 11.7675 58.0731 11.2486C57.1674 10.7298 56.1755 10.4648 55.0649 10.4648C54.073 10.4648 53.1889 10.7298 52.4233 11.2486C51.6578 11.7675 51.0648 12.5071 50.6335 13.4675C50.2023 14.4279 49.9866 15.576 49.9866 16.9228C49.9866 18.2475 50.2023 19.3956 50.6335 20.367C51.0648 21.3385 51.6578 22.0781 52.4233 22.5969C53.1889 23.1158 54.0622 23.3807 55.0649 23.3807C56.1647 23.3807 57.1674 23.1158 58.0731 22.5969C58.9788 22.0781 59.7011 21.3385 60.2402 20.367C60.7793 19.3956 61.0489 18.2585 61.0489 16.9228ZM58.9249 16.9228C58.9249 17.8722 58.7416 18.678 58.3642 19.3404C57.9868 20.0027 57.4909 20.4995 56.8655 20.8417C56.2402 21.1839 55.5609 21.3495 54.8062 21.3495C54.1916 21.3495 53.5878 21.1839 52.9948 20.8417C52.4018 20.4995 51.9058 20.0027 51.5285 19.3404C51.1403 18.678 50.9462 17.8722 50.9462 16.9228C50.9462 15.9734 51.1403 15.1675 51.5285 14.5052C51.9166 13.8428 52.4018 13.3461 52.9948 13.0039C53.5878 12.6616 54.1916 12.4961 54.8062 12.4961C55.5609 12.4961 56.2402 12.6616 56.8655 13.0039C57.4909 13.3461 57.9868 13.8428 58.3642 14.5052C58.7416 15.1675 58.9249 15.9734 58.9249 16.9228Z" fill="#0D60D6"/>
<path d="M67.2379 23.3701C68.5317 23.3701 69.653 23.1051 70.6126 22.5752C71.5614 22.0454 72.3593 21.2616 72.9846 20.2239L71.2811 19.12C70.839 19.8706 70.3107 20.4336 69.6854 20.7979C69.06 21.1622 68.3268 21.3499 67.5074 21.3499C66.688 21.3499 65.9872 21.1733 65.4049 20.809C64.8227 20.4557 64.3914 19.9258 64.0895 19.2524C63.7876 18.568 63.6475 17.7511 63.6475 16.7797C63.669 15.8303 63.8308 15.0244 64.1327 14.3731C64.4346 13.7218 64.8766 13.214 65.4481 12.8718C66.0195 12.5185 66.6988 12.3529 67.5074 12.3529C68.1867 12.3529 68.7797 12.5075 69.2864 12.8055C69.7932 13.1146 70.1921 13.5341 70.4832 14.064C70.7743 14.6049 70.9145 15.2342 70.9145 15.9738C70.9145 16.0952 70.8929 16.2608 70.839 16.4485C70.7851 16.6361 70.7312 16.7797 70.6773 16.868L71.5183 15.6316H62.8604V17.4641H73.1787C73.1787 17.431 73.1787 17.3427 73.1895 17.2102C73.2003 17.0777 73.2003 16.9452 73.2003 16.8238C73.2003 15.5212 72.9738 14.3841 72.521 13.4348C72.0682 12.4854 71.4105 11.7568 70.5695 11.249C69.7177 10.7412 68.7042 10.4873 67.5074 10.4873C66.3214 10.4873 65.2755 10.7522 64.3699 11.2932C63.4642 11.8341 62.7741 12.5848 62.2674 13.5452C61.7714 14.5166 61.5234 15.6426 61.5234 16.9342C61.5234 18.2037 61.7606 19.3297 62.2458 20.2901C62.731 21.2616 63.3995 22.0122 64.262 22.5642C65.1246 23.1162 66.1165 23.3811 67.2379 23.3811V23.3701Z" fill="#0D60D6"/>
<path d="M76.8056 10.7408H74.7031V23.1047H76.8056V10.7408ZM80.4499 13.1032L81.6036 11.3259C81.2909 10.9837 80.9459 10.7519 80.5685 10.6415C80.1911 10.52 79.7814 10.4648 79.3501 10.4648C78.7895 10.4648 78.2396 10.6856 77.7005 11.1382C77.1614 11.5908 76.7193 12.187 76.3743 12.9487C76.0293 13.7104 75.8676 14.5825 75.8676 15.565H76.8164C76.8164 14.9688 76.8703 14.45 76.9889 13.9753C77.1075 13.5117 77.3124 13.1474 77.6035 12.8714C77.9054 12.6064 78.3151 12.4629 78.8326 12.4629C79.1776 12.4629 79.4687 12.5071 79.6952 12.6064C79.9216 12.7058 80.1803 12.8604 80.4607 13.0811L80.4499 13.1032Z" fill="#0D60D6"/>
<path d="M82.8848 16.9235C82.8848 16.0624 83.0681 15.3007 83.4239 14.6273C83.7797 13.9539 84.2757 13.4351 84.8903 13.0597C85.5156 12.6844 86.2164 12.4967 87.0035 12.4967C87.6504 12.4967 88.2542 12.5961 88.8257 12.8058C89.3971 13.0156 89.8931 13.2805 90.3136 13.6227C90.7341 13.965 91.036 14.3403 91.2085 14.7487V12.0662C90.788 11.5694 90.1842 11.172 89.4079 10.8961C88.6316 10.6201 87.8337 10.4766 87.0035 10.4766C85.8283 10.4766 84.7717 10.7525 83.8228 11.3045C82.874 11.8565 82.1301 12.6182 81.5802 13.5896C81.0303 14.5611 80.75 15.665 80.75 16.9235C80.75 18.1599 81.0303 19.2638 81.5802 20.2463C82.1301 21.2177 82.874 21.9905 83.8228 22.5424C84.7717 23.0944 85.8283 23.3704 87.0035 23.3704C87.8229 23.3704 88.6316 23.2268 89.4079 22.9509C90.1842 22.6749 90.788 22.2885 91.2085 21.7807V19.0982C91.036 19.4956 90.7341 19.8599 90.3136 20.2131C89.8931 20.5664 89.3971 20.8424 88.8257 21.0411C88.2542 21.2508 87.6504 21.3502 87.0035 21.3502C86.2164 21.3502 85.5156 21.1625 84.8903 20.7761C84.2649 20.3898 83.7797 19.8709 83.4239 19.2086C83.0681 18.5462 82.8848 17.7845 82.8848 16.9235Z" fill="#0D60D6"/>
<path d="M97.7769 23.3701C99.0708 23.3701 100.192 23.1051 101.152 22.5752C102.1 22.0454 102.898 21.2616 103.524 20.2239L101.82 19.12C101.378 19.8706 100.85 20.4336 100.224 20.7979C99.5991 21.1622 98.8659 21.3499 98.0465 21.3499C97.227 21.3499 96.5262 21.1733 95.944 20.809C95.3618 20.4557 94.9305 19.9258 94.6286 19.2524C94.3267 18.568 94.1865 17.7511 94.1865 16.7797C94.2081 15.8303 94.3698 15.0244 94.6717 14.3731C94.9736 13.7218 95.4157 13.214 95.9871 12.8718C96.5586 12.5185 97.2378 12.3529 98.0465 12.3529C98.7257 12.3529 99.3187 12.5075 99.8255 12.8055C100.332 13.1146 100.731 13.5341 101.022 14.064C101.313 14.6049 101.454 15.2342 101.454 15.9738C101.454 16.0952 101.432 16.2608 101.378 16.4485C101.324 16.6361 101.27 16.7797 101.216 16.868L102.057 15.6316H93.3995V17.4641H103.718C103.718 17.431 103.718 17.3427 103.729 17.2102C103.739 17.0777 103.739 16.9452 103.739 16.8238C103.739 15.5212 103.513 14.3841 103.06 13.4348C102.607 12.4854 101.95 11.7568 101.109 11.249C100.257 10.7412 99.2433 10.4873 98.0465 10.4873C96.8605 10.4873 95.8146 10.7522 94.9089 11.2932C94.0033 11.8341 93.3132 12.5848 92.8065 13.5452C92.3105 14.5166 92.0625 15.6426 92.0625 16.9342C92.0625 18.2037 92.2997 19.3297 92.7849 20.2901C93.2701 21.2616 93.9386 22.0122 94.8011 22.5642C95.6637 23.1162 96.6556 23.3811 97.7769 23.3811V23.3701Z" fill="#0D60D6"/>
<path d="M112.984 15.5767V23.1054H115.086V15.3117C115.086 13.8214 114.719 12.6513 113.976 11.7792C113.232 10.9071 112.218 10.4766 110.946 10.4766C110.159 10.4766 109.458 10.6532 108.854 11.0175C108.25 11.3707 107.744 11.9337 107.345 12.6844V10.7525H105.242V23.1165H107.345V15.5877C107.345 14.9806 107.474 14.4396 107.722 13.976C107.981 13.5123 108.337 13.1481 108.8 12.8831C109.264 12.6182 109.803 12.4967 110.418 12.4967C111.259 12.4967 111.895 12.7617 112.337 13.2805C112.779 13.7994 112.994 14.5721 112.994 15.5877L112.984 15.5767Z" fill="#0D60D6"/>
<path d="M115.812 10.7415V12.7617H121.85V10.7415H115.812ZM117.786 6.44727V23.1054H119.888V6.44727H117.786Z" fill="#0D60D6"/>
</svg>
