<svg width="131" height="44" viewBox="0 0 131 44" fill="none" xmlns="http://www.w3.org/2000/svg">
<rect x="0.542289" y="0.542289" width="129.915" height="42.9154" rx="7.04976" fill="black"/>
<rect x="0.542289" y="0.542289" width="129.915" height="42.9154" rx="7.04976" stroke="#A6A6A6" stroke-width="1.08458"/>
<path d="M88.4221 21.1214V23.6415H86.8646V25.2942H88.4221V30.9097C88.4221 32.8271 89.2774 33.5941 91.4291 33.5941C91.8072 33.5941 92.1673 33.5485 92.4824 33.4937V31.8593C92.2123 31.8867 92.0413 31.9049 91.7442 31.9049C90.7809 31.9049 90.3577 31.4484 90.3577 30.4075V25.2942H92.4824V23.6415H90.3577V21.1214H88.4221Z" fill="white"/>
<path d="M97.9637 33.7311C100.827 33.7311 102.582 31.7862 102.582 28.563C102.582 25.3581 100.818 23.4041 97.9637 23.4041C95.1008 23.4041 93.3362 25.3581 93.3362 28.563C93.3362 31.7862 95.0918 33.7311 97.9637 33.7311ZM97.9637 31.9871C96.2802 31.9871 95.3349 30.7362 95.3349 28.563C95.3349 26.4082 96.2802 25.1481 97.9637 25.1481C99.6382 25.1481 100.593 26.4082 100.593 28.563C100.593 30.727 99.6382 31.9871 97.9637 31.9871Z" fill="white"/>
<path d="M104.084 33.5394H106.02V27.6682C106.02 26.2712 107.055 25.3307 108.523 25.3307C108.865 25.3307 109.441 25.3946 109.603 25.4494V23.5137C109.396 23.4589 109.027 23.4315 108.739 23.4315C107.46 23.4315 106.371 24.1437 106.092 25.1207H105.948V23.5958H104.084V33.5394Z" fill="white"/>
<path d="M114.409 25.075C115.84 25.075 116.777 26.0886 116.822 27.6499H111.87C111.978 26.0977 112.978 25.075 114.409 25.075ZM116.813 30.8549C116.453 31.631 115.651 32.0602 114.481 32.0602C112.933 32.0602 111.933 30.9553 111.87 29.2113V29.1018H118.793V28.4169C118.793 25.2942 117.146 23.4041 114.418 23.4041C111.654 23.4041 109.899 25.422 109.899 28.5996C109.899 31.7771 111.618 33.7311 114.427 33.7311C116.669 33.7311 118.235 32.6354 118.676 30.8549H116.813Z" fill="white"/>
<path d="M75.7287 29.8674C75.878 32.3091 77.8842 33.8706 80.8701 33.8706C84.0614 33.8706 86.0583 32.2333 86.0583 29.6213C86.0583 27.5677 84.9199 26.432 82.1578 25.779L80.6742 25.4099C78.9199 24.9935 78.2108 24.4351 78.2108 23.4603C78.2108 22.23 79.3118 21.4256 80.9635 21.4256C82.5311 21.4256 83.6135 22.2111 83.8095 23.4698H85.8437C85.7224 21.1701 83.7255 19.5518 80.9915 19.5518C78.0521 19.5518 76.0926 21.1701 76.0926 23.6023C76.0926 25.6086 77.203 26.8011 79.6384 27.3784L81.374 27.8042C83.1563 28.2301 83.9401 28.8547 83.9401 29.8958C83.9401 31.1071 82.7084 31.9873 81.0288 31.9873C79.2279 31.9873 77.9775 31.1639 77.8002 29.8674H75.7287Z" fill="white"/>
<path d="M55.6777 23.4315C54.3453 23.4315 53.1929 24.1072 52.5987 25.2394H52.4547V23.5958H50.5911V36.8447H52.5267V32.0328H52.6798C53.1929 33.0828 54.3003 33.7037 55.6957 33.7037C58.1715 33.7037 59.747 31.7223 59.747 28.563C59.747 25.4038 58.1715 23.4315 55.6777 23.4315ZM55.1285 31.9415C53.508 31.9415 52.4907 30.6449 52.4907 28.5722C52.4907 26.4903 53.508 25.1937 55.1375 25.1937C56.7761 25.1937 57.7574 26.4629 57.7574 28.563C57.7574 30.6723 56.7761 31.9415 55.1285 31.9415Z" fill="white"/>
<path d="M66.52 23.4315C65.1876 23.4315 64.0352 24.1072 63.441 25.2394H63.297V23.5958H61.4334V36.8447H63.369V32.0328H63.5221C64.0352 33.0828 65.1426 33.7037 66.538 33.7037C69.0138 33.7037 70.5893 31.7223 70.5893 28.563C70.5893 25.4038 69.0138 23.4315 66.52 23.4315ZM65.9708 31.9415C64.3503 31.9415 63.333 30.6449 63.333 28.5722C63.333 26.4903 64.3503 25.1937 65.9798 25.1937C67.6184 25.1937 68.5997 26.4629 68.5997 28.563C68.5997 30.6723 67.6184 31.9415 65.9708 31.9415Z" fill="white"/>
<path d="M47.1183 33.5394H49.3391L44.4776 19.883H42.2287L37.3672 33.5394H39.5134L40.7544 29.9147H45.8866L47.1183 33.5394ZM43.2458 22.3625H43.4045L45.3547 28.1355H41.2863L43.2458 22.3625Z" fill="white"/>
<path d="M38.6641 9.58196V16.1699H41.0093C42.9449 16.1699 44.0658 14.96 44.0658 12.8554C44.0658 10.7827 42.9359 9.58196 41.0093 9.58196H38.6641ZM39.6724 10.5133H40.8968C42.2427 10.5133 43.0394 11.3807 43.0394 12.8691C43.0394 14.3802 42.2562 15.2385 40.8968 15.2385H39.6724V10.5133Z" fill="white"/>
<path d="M47.4986 16.2657C48.93 16.2657 49.8078 15.2933 49.8078 13.6817C49.8078 12.0792 48.9255 11.1022 47.4986 11.1022C46.0671 11.1022 45.1848 12.0792 45.1848 13.6817C45.1848 15.2933 46.0626 16.2657 47.4986 16.2657ZM47.4986 15.3938C46.6568 15.3938 46.1841 14.7683 46.1841 13.6817C46.1841 12.6043 46.6568 11.9742 47.4986 11.9742C48.3358 11.9742 48.813 12.6043 48.813 13.6817C48.813 14.7637 48.3358 15.3938 47.4986 15.3938Z" fill="white"/>
<path d="M57.2828 11.1981H56.315L55.4418 14.992H55.3652L54.3569 11.1981H53.4296L52.4213 14.992H52.3493L51.4715 11.1981H50.4902L51.8406 16.1699H52.8354L53.8438 12.5084H53.9203L54.9331 16.1699H55.9369L57.2828 11.1981Z" fill="white"/>
<path d="M58.3974 16.1699H59.3652V13.2617C59.3652 12.4856 59.8198 12.0016 60.5356 12.0016C61.2513 12.0016 61.5934 12.3988 61.5934 13.1978V16.1699H62.5612V12.9512C62.5612 11.7688 61.958 11.1022 60.8642 11.1022C60.1259 11.1022 59.6398 11.4355 59.4012 11.9879H59.3292V11.1981H58.3974V16.1699Z" fill="white"/>
<path d="M64.0854 16.1699H65.0532V9.25781H64.0854V16.1699Z" fill="white"/>
<path d="M68.6931 16.2657C70.1245 16.2657 71.0023 15.2933 71.0023 13.6817C71.0023 12.0792 70.12 11.1022 68.6931 11.1022C67.2616 11.1022 66.3793 12.0792 66.3793 13.6817C66.3793 15.2933 67.2571 16.2657 68.6931 16.2657ZM68.6931 15.3938C67.8513 15.3938 67.3786 14.7683 67.3786 13.6817C67.3786 12.6043 67.8513 11.9742 68.6931 11.9742C69.5303 11.9742 70.0075 12.6043 70.0075 13.6817C70.0075 14.7637 69.5303 15.3938 68.6931 15.3938Z" fill="white"/>
<path d="M73.8859 15.4257C73.3592 15.4257 72.9766 15.1655 72.9766 14.7181C72.9766 14.2798 73.2827 14.0469 73.9579 14.0013L75.1553 13.9237V14.3391C75.1553 14.9555 74.6151 15.4257 73.8859 15.4257ZM73.6383 16.2521C74.282 16.2521 74.8177 15.969 75.1103 15.4714H75.1868V16.1699H76.1186V12.7732C76.1186 11.7231 75.4254 11.1022 74.1965 11.1022C73.0846 11.1022 72.2924 11.6501 72.1934 12.5038H73.1297C73.2377 12.1523 73.6113 11.9514 74.1515 11.9514C74.8132 11.9514 75.1553 12.2482 75.1553 12.7732V13.2023L73.8274 13.28C72.6615 13.353 72.0043 13.8689 72.0043 14.7637C72.0043 15.6722 72.693 16.2521 73.6383 16.2521Z" fill="white"/>
<path d="M79.4028 16.2521C80.078 16.2521 80.6497 15.9279 80.9423 15.3846H81.0188V16.1699H81.9461V9.25781H80.9783V11.9879H80.9063C80.6407 11.4401 80.0735 11.1159 79.4028 11.1159C78.1649 11.1159 77.3682 12.1112 77.3682 13.6817C77.3682 15.2568 78.1559 16.2521 79.4028 16.2521ZM79.6774 11.9971C80.4877 11.9971 80.9963 12.6499 80.9963 13.6863C80.9963 14.7272 80.4922 15.3709 79.6774 15.3709C78.8582 15.3709 78.3675 14.7363 78.3675 13.6817C78.3675 12.6362 78.8627 11.9971 79.6774 11.9971Z" fill="white"/>
<path d="M88.222 16.2657C89.6535 16.2657 90.5313 15.2933 90.5313 13.6817C90.5313 12.0792 89.649 11.1022 88.222 11.1022C86.7906 11.1022 85.9083 12.0792 85.9083 13.6817C85.9083 15.2933 86.7861 16.2657 88.222 16.2657ZM88.222 15.3938C87.3803 15.3938 86.9076 14.7683 86.9076 13.6817C86.9076 12.6043 87.3803 11.9742 88.222 11.9742C89.0593 11.9742 89.5364 12.6043 89.5364 13.6817C89.5364 14.7637 89.0593 15.3938 88.222 15.3938Z" fill="white"/>
<path d="M91.8124 16.1699H92.7802V13.2617C92.7802 12.4856 93.2348 12.0016 93.9505 12.0016C94.6663 12.0016 95.0084 12.3988 95.0084 13.1978V16.1699H95.9762V12.9512C95.9762 11.7688 95.373 11.1022 94.2791 11.1022C93.5409 11.1022 93.0548 11.4355 92.8162 11.9879H92.7442V11.1981H91.8124V16.1699Z" fill="white"/>
<path d="M100.433 9.96089V11.2209H99.6547V12.0473H100.433V14.855C100.433 15.8138 100.861 16.1973 101.937 16.1973C102.126 16.1973 102.306 16.1744 102.464 16.147V15.3298C102.329 15.3435 102.243 15.3527 102.095 15.3527C101.613 15.3527 101.401 15.1244 101.401 14.6039V12.0473H102.464V11.2209H101.401V9.96089H100.433Z" fill="white"/>
<path d="M103.763 16.1699H104.731V13.2663C104.731 12.513 105.172 12.0062 105.964 12.0062C106.648 12.0062 107.013 12.408 107.013 13.2023V16.1699H107.981V12.9604C107.981 11.7779 107.337 11.1068 106.293 11.1068C105.554 11.1068 105.037 11.4401 104.798 11.9971H104.722V9.25781H103.763V16.1699Z" fill="white"/>
<path d="M111.472 11.9377C112.188 11.9377 112.656 12.4445 112.678 13.2252H110.202C110.256 12.449 110.756 11.9377 111.472 11.9377ZM112.674 14.8276C112.494 15.2157 112.093 15.4303 111.508 15.4303C110.734 15.4303 110.234 14.8779 110.202 14.0059V13.9511H113.664V13.6087C113.664 12.0473 112.84 11.1022 111.476 11.1022C110.094 11.1022 109.217 12.1112 109.217 13.7C109.217 15.2887 110.076 16.2657 111.481 16.2657C112.602 16.2657 113.385 15.7179 113.606 14.8276H112.674Z" fill="white"/>
<path d="M26.8613 22.3312C26.8848 20.4821 27.864 18.7324 29.4172 17.7639C28.4373 16.3446 26.7961 15.4446 25.0885 15.3905C23.2672 15.1966 21.5016 16.4958 20.5735 16.4958C19.6275 16.4958 18.1985 15.4097 16.6598 15.4418C14.6541 15.5075 12.7844 16.6641 11.8086 18.4425C9.71099 22.1257 11.2756 27.5389 13.2849 30.5162C14.2902 31.974 15.4651 33.6025 17.0024 33.5448C18.5068 33.4815 19.0687 32.5719 20.8846 32.5719C22.6836 32.5719 23.2108 33.5448 24.7793 33.5081C26.3936 33.4815 27.4106 32.0437 28.3806 30.572C29.1029 29.5332 29.6588 28.3851 30.0275 27.1703C28.1304 26.3565 26.8636 24.4202 26.8613 22.3312Z" fill="white"/>
<path d="M23.8986 13.4325C24.7788 12.3608 25.2124 10.9834 25.1074 9.59277C23.7627 9.73602 22.5206 10.3878 21.6285 11.4183C20.7562 12.4252 20.3023 13.7784 20.3881 15.1159C21.7333 15.1299 23.0557 14.4958 23.8986 13.4325Z" fill="white"/>
</svg>
