<svg width="147" height="44" viewBox="0 0 147 44" fill="none" xmlns="http://www.w3.org/2000/svg">
<rect x="0.542289" y="0.542289" width="145.915" height="42.9154" rx="4.8806" fill="black"/>
<rect x="0.542289" y="0.542289" width="145.915" height="42.9154" rx="4.8806" stroke="#A6A6A6" stroke-width="1.08458"/>
<path d="M73.9012 23.9264C71.3503 23.9264 69.2711 25.8943 69.2711 28.6047C69.2711 31.2986 71.3503 33.283 73.9012 33.283C76.4532 33.283 78.5323 31.2986 78.5323 28.6047C78.5312 25.8943 76.4521 23.9264 73.9012 23.9264ZM73.9012 31.4416C72.5032 31.4416 71.2982 30.2723 71.2982 28.6058C71.2982 26.9217 72.5042 25.77 73.9012 25.77C75.2992 25.77 76.5042 26.9217 76.5042 28.6058C76.5042 30.2712 75.2992 31.4416 73.9012 31.4416ZM63.7994 23.9264C61.2485 23.9264 59.1694 25.8943 59.1694 28.6047C59.1694 31.2986 61.2485 33.283 63.7994 33.283C66.3514 33.283 68.4306 31.2986 68.4306 28.6047C68.4306 25.8943 66.3514 23.9264 63.7994 23.9264ZM63.7994 31.4416C62.4014 31.4416 61.1964 30.2723 61.1964 28.6058C61.1964 26.9217 62.4025 25.77 63.7994 25.77C65.1974 25.77 66.4024 26.9217 66.4024 28.6058C66.4035 30.2712 65.1974 31.4416 63.7994 31.4416ZM51.7845 25.363V27.3474H56.4677C56.3278 28.4639 55.9612 29.279 55.4015 29.8455C54.7204 30.5363 53.6543 31.2986 51.7845 31.2986C48.9017 31.2986 46.6479 28.9413 46.6479 26.0175C46.6479 23.0937 48.9017 20.7364 51.7845 20.7364C53.3398 20.7364 54.4753 21.3568 55.3137 22.1543L56.6944 20.754C55.523 19.6199 53.9688 18.752 51.7845 18.752C47.8355 18.752 44.5156 22.0124 44.5156 26.0175C44.5156 30.0226 47.8355 33.283 51.7845 33.283C53.9157 33.283 55.5241 32.5735 56.7811 31.2447C58.0739 29.9335 58.4763 28.0899 58.4763 26.6016C58.4763 26.1418 58.4416 25.7161 58.3711 25.3619H51.7845V25.363ZM100.925 26.9041C100.541 25.8591 99.3692 23.9264 96.9756 23.9264C94.5993 23.9264 92.6243 25.8228 92.6243 28.6047C92.6243 31.2271 94.5819 33.283 97.2023 33.283C99.3161 33.283 100.54 31.9718 101.047 31.2095L99.4744 30.1458C98.9506 30.9257 98.2337 31.4394 97.2023 31.4394C96.1719 31.4394 95.4376 30.9609 94.9659 30.0215L101.134 27.4343L100.925 26.9041ZM94.634 28.4639C94.5819 26.6555 96.0146 25.7348 97.0461 25.7348C97.8497 25.7348 98.5309 26.1429 98.7586 26.727L94.634 28.4639ZM89.62 33.0003H91.646V19.2492H89.62V33.0003ZM86.299 24.9725H86.2296C85.7751 24.4225 84.901 23.9264 83.8012 23.9264C81.4943 23.9264 79.3805 25.9823 79.3805 28.6234C79.3805 31.2458 81.4943 33.2841 83.8012 33.2841C84.9021 33.2841 85.7751 32.788 86.2296 32.2215H86.299V32.8947C86.299 34.6844 85.3554 35.6414 83.8359 35.6414C82.5952 35.6414 81.8262 34.7383 81.5117 33.976L79.7471 34.7207C80.2536 35.9604 81.5984 37.485 83.8359 37.485C86.2122 37.485 88.2219 36.0671 88.2219 32.6109V24.2113H86.3001V24.9725H86.299ZM83.9758 31.4416C82.5778 31.4416 81.4075 30.2536 81.4075 28.6234C81.4075 26.9745 82.5778 25.77 83.9758 25.77C85.3554 25.77 86.4389 26.9745 86.4389 28.6234C86.4389 30.2536 85.3554 31.4416 83.9758 31.4416ZM110.419 19.2492H105.57V33.0003H107.593V27.7907H110.418C112.661 27.7907 114.867 26.144 114.867 23.5205C114.867 20.897 112.662 19.2492 110.419 19.2492ZM110.471 25.8767H107.593V21.1632H110.471C111.984 21.1632 112.843 22.4337 112.843 23.5205C112.843 24.5853 111.984 25.8767 110.471 25.8767ZM122.978 23.9022C121.513 23.9022 119.996 24.5567 119.368 26.0076L121.164 26.7677C121.548 26.0076 122.264 25.759 123.013 25.759C124.06 25.759 125.124 26.3959 125.141 27.5278V27.6697C124.774 27.4574 123.989 27.1395 123.03 27.1395C121.094 27.1395 119.123 28.2186 119.123 30.2349C119.123 32.0752 120.71 33.2599 122.489 33.2599C123.849 33.2599 124.6 32.6406 125.07 31.9146H125.14V32.9761H127.094V27.7038C127.095 25.264 125.297 23.9022 122.978 23.9022ZM122.733 31.4383C122.072 31.4383 121.146 31.1017 121.146 30.2701C121.146 29.2086 122.298 28.8016 123.293 28.8016C124.181 28.8016 124.601 28.9963 125.141 29.2614C124.984 30.5363 123.902 31.4383 122.733 31.4383ZM134.211 24.2025L131.891 30.1645H131.822L129.414 24.2025H127.234L130.845 32.535L128.786 37.1704H130.897L136.462 24.2025H134.211ZM115.984 33.0003H118.007V19.2492H115.984V33.0003Z" fill="white"/>
<path d="M51.4306 11.2675C51.4306 12.1893 51.1616 12.923 50.6226 13.4708C50.0109 14.122 49.2127 14.4476 48.2322 14.4476C47.2929 14.4476 46.4936 14.1176 45.8374 13.4576C45.1802 12.7965 44.8516 11.9781 44.8516 11.0013C44.8516 10.0234 45.1802 9.20501 45.8374 8.54501C46.4936 7.88391 47.2929 7.55391 48.2322 7.55391C48.6986 7.55391 49.1443 7.64631 49.5673 7.83001C49.9914 8.01481 50.3308 8.26011 50.5846 8.56701L50.0131 9.14781C49.5825 8.62531 48.9892 8.36461 48.2311 8.36461C47.5457 8.36461 46.9535 8.60881 46.4535 9.09721C45.9535 9.58561 45.704 10.2203 45.704 11.0002C45.704 11.7801 45.9535 12.4148 46.4535 12.9032C46.9535 13.3916 47.5457 13.6358 48.2311 13.6358C48.9578 13.6358 49.5641 13.3905 50.0489 12.8988C50.3634 12.5787 50.5456 12.1332 50.5944 11.5623H48.2311V10.7692H51.384C51.4165 10.9419 51.4306 11.108 51.4306 11.2675Z" fill="white"/>
<path d="M56.4306 8.51097H53.4676V10.6032H56.14V11.3963H53.4676V13.4885H56.4306V14.3003H52.6313V7.70027H56.4306V8.51097Z" fill="white"/>
<path d="M59.9565 14.3003H59.1203V8.51097H57.3025V7.70027H61.7742V8.51097H59.9565V14.3003Z" fill="white"/>
<path d="M65.0095 14.3003V7.70027H65.8457V14.3003H65.0095Z" fill="white"/>
<path d="M69.554 14.3003H68.7178V8.51097H66.9001V7.70027H71.3718V8.51097H69.554V14.3003Z" fill="white"/>
<path d="M79.8367 13.4478C79.1968 14.1144 78.4018 14.4477 77.4506 14.4477C76.4994 14.4477 75.7044 14.1144 75.0656 13.4478C74.4257 12.7812 74.1068 11.965 74.1068 11.0003C74.1068 10.0356 74.4257 9.21936 75.0656 8.55276C75.7044 7.88616 76.4994 7.55176 77.4506 7.55176C78.3963 7.55176 79.1903 7.88726 79.8323 8.55716C80.4744 9.22706 80.7954 10.0411 80.7954 11.0003C80.7954 11.965 80.4755 12.7812 79.8367 13.4478ZM75.6827 12.8945C76.1643 13.3895 76.7532 13.6359 77.4506 13.6359C78.148 13.6359 78.738 13.3884 79.2185 12.8945C79.7 12.3995 79.9419 11.7681 79.9419 11.0003C79.9419 10.2325 79.7 9.60106 79.2185 9.10606C78.738 8.61106 78.148 8.36466 77.4506 8.36466C76.7532 8.36466 76.1643 8.61216 75.6827 9.10606C75.2023 9.60106 74.9604 10.2325 74.9604 11.0003C74.9604 11.7681 75.2023 12.3995 75.6827 12.8945Z" fill="white"/>
<path d="M81.969 14.3003V7.70027H82.9863L86.1489 12.834H86.1847L86.1489 11.5624V7.70027H86.9851V14.3003H86.1121L82.803 8.91687H82.7672L82.803 10.1885V14.3003H81.969Z" fill="white"/>
<path d="M51.4306 11.2675C51.4306 12.1893 51.1616 12.923 50.6226 13.4708C50.0109 14.122 49.2127 14.4476 48.2322 14.4476C47.2929 14.4476 46.4936 14.1176 45.8374 13.4576C45.1802 12.7965 44.8516 11.9781 44.8516 11.0013C44.8516 10.0234 45.1802 9.20501 45.8374 8.54501C46.4936 7.88391 47.2929 7.55391 48.2322 7.55391C48.6986 7.55391 49.1443 7.64631 49.5673 7.83001C49.9914 8.01481 50.3308 8.26011 50.5846 8.56701L50.0131 9.14781C49.5825 8.62531 48.9892 8.36461 48.2311 8.36461C47.5457 8.36461 46.9535 8.60881 46.4535 9.09721C45.9535 9.58561 45.704 10.2203 45.704 11.0002C45.704 11.7801 45.9535 12.4148 46.4535 12.9032C46.9535 13.3916 47.5457 13.6358 48.2311 13.6358C48.9578 13.6358 49.5641 13.3905 50.0489 12.8988C50.3634 12.5787 50.5456 12.1332 50.5944 11.5623H48.2311V10.7692H51.384C51.4165 10.9419 51.4306 11.108 51.4306 11.2675Z" stroke="white" stroke-width="0.216916" stroke-miterlimit="10"/>
<path d="M56.4306 8.51097H53.4676V10.6032H56.14V11.3963H53.4676V13.4885H56.4306V14.3003H52.6313V7.70027H56.4306V8.51097Z" stroke="white" stroke-width="0.216916" stroke-miterlimit="10"/>
<path d="M59.9565 14.3003H59.1203V8.51097H57.3025V7.70027H61.7742V8.51097H59.9565V14.3003Z" stroke="white" stroke-width="0.216916" stroke-miterlimit="10"/>
<path d="M65.0095 14.3003V7.70027H65.8457V14.3003H65.0095Z" stroke="white" stroke-width="0.216916" stroke-miterlimit="10"/>
<path d="M69.554 14.3003H68.7178V8.51097H66.9001V7.70027H71.3718V8.51097H69.554V14.3003Z" stroke="white" stroke-width="0.216916" stroke-miterlimit="10"/>
<path d="M79.8367 13.4478C79.1968 14.1144 78.4018 14.4477 77.4506 14.4477C76.4994 14.4477 75.7044 14.1144 75.0656 13.4478C74.4257 12.7812 74.1068 11.965 74.1068 11.0003C74.1068 10.0356 74.4257 9.21936 75.0656 8.55276C75.7044 7.88616 76.4994 7.55176 77.4506 7.55176C78.3963 7.55176 79.1903 7.88726 79.8323 8.55716C80.4744 9.22706 80.7954 10.0411 80.7954 11.0003C80.7954 11.965 80.4755 12.7812 79.8367 13.4478ZM75.6827 12.8945C76.1643 13.3895 76.7532 13.6359 77.4506 13.6359C78.148 13.6359 78.738 13.3884 79.2185 12.8945C79.7 12.3995 79.9419 11.7681 79.9419 11.0003C79.9419 10.2325 79.7 9.60106 79.2185 9.10606C78.738 8.61106 78.148 8.36466 77.4506 8.36466C76.7532 8.36466 76.1643 8.61216 75.6827 9.10606C75.2023 9.60106 74.9604 10.2325 74.9604 11.0003C74.9604 11.7681 75.2023 12.3995 75.6827 12.8945Z" stroke="white" stroke-width="0.216916" stroke-miterlimit="10"/>
<path d="M81.969 14.3003V7.70027H82.9863L86.1489 12.834H86.1847L86.1489 11.5624V7.70027H86.9851V14.3003H86.1121L82.803 8.91687H82.7672L82.803 10.1885V14.3003H81.969Z" stroke="white" stroke-width="0.216916" stroke-miterlimit="10"/>
<g filter="url(#filter0_ii_736_1214)">
<path d="M11.3225 8.29221C11.0069 8.63101 10.8203 9.15681 10.8203 9.83771V34.1653C10.8203 34.8473 11.0069 35.372 11.3225 35.7108L11.4027 35.79L24.8396 22.1621V22.0015V21.8409L11.4027 8.21191L11.3225 8.29221Z" fill="url(#paint0_linear_736_1214)"/>
<path d="M29.3142 26.7062L24.8359 22.1621V22.0015V21.8409L29.3152 17.2979L29.4161 17.3562L34.723 20.4142C36.2381 21.2876 36.2381 22.7165 34.723 23.591L29.4161 26.649L29.3142 26.7062Z" fill="url(#paint1_linear_736_1214)"/>
<g filter="url(#filter1_i_736_1214)">
<path d="M29.4176 26.6474L24.8363 22.001L11.3203 35.7103C11.8192 36.2471 12.6446 36.3131 13.5741 35.7785L29.4176 26.6474Z" fill="url(#paint2_linear_736_1214)"/>
</g>
<path d="M29.4176 17.3552L13.5741 8.22515C12.6446 7.68945 11.8192 7.75655 11.3203 8.29335L24.8374 22.0027L29.4176 17.3552Z" fill="url(#paint3_linear_736_1214)"/>
</g>
<defs>
<filter id="filter0_ii_736_1214" x="10.8203" y="7.85547" width="25.0391" height="28.292" filterUnits="userSpaceOnUse" color-interpolation-filters="sRGB">
<feFlood flood-opacity="0" result="BackgroundImageFix"/>
<feBlend mode="normal" in="SourceGraphic" in2="BackgroundImageFix" result="shape"/>
<feColorMatrix in="SourceAlpha" type="matrix" values="0 0 0 0 0 0 0 0 0 0 0 0 0 0 0 0 0 0 127 0" result="hardAlpha"/>
<feOffset dy="-0.162687"/>
<feComposite in2="hardAlpha" operator="arithmetic" k2="-1" k3="1"/>
<feColorMatrix type="matrix" values="0 0 0 0 0 0 0 0 0 0 0 0 0 0 0 0 0 0 0.12 0"/>
<feBlend mode="normal" in2="shape" result="effect1_innerShadow_736_1214"/>
<feColorMatrix in="SourceAlpha" type="matrix" values="0 0 0 0 0 0 0 0 0 0 0 0 0 0 0 0 0 0 127 0" result="hardAlpha"/>
<feOffset dy="0.162687"/>
<feComposite in2="hardAlpha" operator="arithmetic" k2="-1" k3="1"/>
<feColorMatrix type="matrix" values="0 0 0 0 1 0 0 0 0 1 0 0 0 0 1 0 0 0 0.25 0"/>
<feBlend mode="normal" in2="effect1_innerShadow_736_1214" result="effect2_innerShadow_736_1214"/>
</filter>
<filter id="filter1_i_736_1214" x="11.3203" y="22.001" width="18.0938" height="14.1465" filterUnits="userSpaceOnUse" color-interpolation-filters="sRGB">
<feFlood flood-opacity="0" result="BackgroundImageFix"/>
<feBlend mode="normal" in="SourceGraphic" in2="BackgroundImageFix" result="shape"/>
<feColorMatrix in="SourceAlpha" type="matrix" values="0 0 0 0 0 0 0 0 0 0 0 0 0 0 0 0 0 0 127 0" result="hardAlpha"/>
<feOffset dy="-0.162687"/>
<feComposite in2="hardAlpha" operator="arithmetic" k2="-1" k3="1"/>
<feColorMatrix type="matrix" values="0 0 0 0 0 0 0 0 0 0 0 0 0 0 0 0 0 0 0.08 0"/>
<feBlend mode="normal" in2="shape" result="effect1_innerShadow_736_1214"/>
</filter>
<linearGradient id="paint0_linear_736_1214" x1="23.6485" y1="9.58031" x2="5.19013" y2="27.7799" gradientUnits="userSpaceOnUse">
<stop stop-color="#00A0FF"/>
<stop offset="0.0066" stop-color="#00A1FF"/>
<stop offset="0.2601" stop-color="#00BEFF"/>
<stop offset="0.5122" stop-color="#00D2FF"/>
<stop offset="0.7604" stop-color="#00DFFF"/>
<stop offset="1" stop-color="#00E3FF"/>
</linearGradient>
<linearGradient id="paint1_linear_736_1214" x1="36.6953" y1="22.0015" x2="10.4529" y2="22.0015" gradientUnits="userSpaceOnUse">
<stop stop-color="#FFE000"/>
<stop offset="0.4087" stop-color="#FFBD00"/>
<stop offset="0.7754" stop-color="#FFA500"/>
<stop offset="1" stop-color="#FF9C00"/>
</linearGradient>
<linearGradient id="paint2_linear_736_1214" x1="26.9297" y1="24.5243" x2="1.89782" y2="49.2052" gradientUnits="userSpaceOnUse">
<stop stop-color="#FF3A44"/>
<stop offset="1" stop-color="#C31162"/>
</linearGradient>
<linearGradient id="paint3_linear_736_1214" x1="7.91626" y1="0.194932" x2="19.0937" y2="11.2156" gradientUnits="userSpaceOnUse">
<stop stop-color="#32A071"/>
<stop offset="0.0685" stop-color="#2DA771"/>
<stop offset="0.4762" stop-color="#15CF74"/>
<stop offset="0.8009" stop-color="#06E775"/>
<stop offset="1" stop-color="#00F076"/>
</linearGradient>
</defs>
</svg>
